<svg width="11" height="11" viewBox="0 0 11 11" fill="none" xmlns="http://www.w3.org/2000/svg">
<path d="M3.83382 3.85733L4.14119 3.81471L4.28405 3.53926L5.56892 1.06195C5.56894 1.06191 5.56896 1.06187 5.56898 1.06183C5.57053 1.05886 5.5713 1.0583 5.57089 1.05872C5.57062 1.05899 5.57082 1.05866 5.57222 1.05787C5.57574 1.0559 5.58536 1.0521 5.60004 1.05215C5.61478 1.05219 5.6253 1.0561 5.62998 1.05874L5.63195 1.06001L5.63238 1.06037L5.63243 1.06042L5.6326 1.06064L5.63389 1.06282L5.63391 1.06284L6.91831 3.53926L7.06118 3.81471L7.36854 3.85733L10.2435 4.2559L10.2439 4.25596C10.2467 4.25634 10.2491 4.25678 10.2512 4.25724L8.18642 6.17058L7.94536 6.39396L8.0038 6.71737L8.49305 9.42506C8.4857 9.42955 8.47684 9.43251 8.46853 9.43324C8.46139 9.43387 8.45315 9.43316 8.44148 9.42733L8.44138 9.42728L5.86944 8.14173L5.60118 8.00764L5.33292 8.14173L2.76098 9.42728L2.75913 9.42821C2.74768 9.43398 2.73992 9.43456 2.73337 9.43399C2.72536 9.43329 2.71657 9.43035 2.7092 9.42572L3.19856 6.71737L3.257 6.39396L3.01594 6.17058L0.951113 4.25724C0.953216 4.25678 0.955642 4.25634 0.958419 4.25596L0.958836 4.2559L3.83382 3.85733ZM8.49577 9.44004L9.08619 9.33336C9.17474 9.8255 8.62966 10.1923 8.17312 9.96397L8.49577 9.44004Z" fill="white" stroke="#7AC751" stroke-width="1.2"/>
</svg>
